<svg xmlns="http://www.w3.org/2000/svg" viewBox="0 9.5 469.1499938964844 39.5" data-asc="0.97" width="469.1499938964844" height="39.5"><defs/><g fill="#000000"><g transform="translate(0, 0)"><path d="M27.55 39.15L39.10 10L53.70 10L53.70 12Q52.05 12 51.03 12.32Q50 12.65 49.45 13.50Q48.90 14.35 48.73 15.82Q48.55 17.30 48.55 19.55L48.55 38.95Q48.55 41.45 48.75 42.90Q48.95 44.35 49.55 45.15Q50.15 45.95 51.28 46.20Q52.40 46.45 54.25 46.50L54.25 48.50L35.45 48.50L35.45 46.50Q37.30 46.45 38.43 46.17Q39.55 45.90 40.18 45.15Q40.80 44.40 41 43.02Q41.20 41.65 41.20 39.30L41.20 15.90L40.95 15.90L27.50 49L23.80 49L9.90 15.90L9.70 15.90L9.70 38.95Q9.70 41.45 9.90 42.90Q10.10 44.35 10.70 45.15Q11.30 45.95 12.43 46.20Q13.55 46.45 15.40 46.50L15.40 48.50L0 48.50L0 46.50Q1.85 46.45 3 46.17Q4.15 45.90 4.78 45.15Q5.40 44.40 5.60 43.02Q5.80 41.65 5.80 39.30L5.80 19.20Q5.80 17.10 5.60 15.70Q5.40 14.30 4.85 13.48Q4.30 12.65 3.28 12.32Q2.25 12 0.55 12L0.55 10L15.70 10L27.35 39.15L27.55 39.15ZM80.80 36.85L66.65 36.85Q64.30 42.15 64.30 44.20Q64.30 45.70 65.42 46.10Q66.55 46.50 68.80 46.50L68.80 48.50L55.10 48.50L55.10 46.50Q56.30 46.35 57.17 46.10Q58.05 45.85 58.73 45.40Q59.40 44.95 59.90 44.23Q60.40 43.50 60.85 42.45L74 9.50L77.70 9.50L89.65 38.70Q90.70 41.25 91.43 42.70Q92.15 44.15 92.97 44.92Q93.80 45.70 94.88 46Q95.95 46.30 97.65 46.45L97.65 48.50L78.75 48.50L78.75 46.45Q81.15 46.35 82.20 45.95Q83.25 45.55 83.25 44.35Q83.25 43.65 82.90 42.55Q82.55 41.45 81.95 39.85L80.80 36.85M67.80 33.85L79.70 33.85L73.95 18.70L73.75 18.70L67.80 33.85ZM130.40 10L132.85 10L131.85 22.65L129.85 22.65Q128.80 18.05 125.78 15.40Q122.75 12.75 118.45 12.75Q115.50 12.75 113.20 13.92Q110.90 15.10 109.33 17.27Q107.75 19.45 106.92 22.57Q106.10 25.70 106.10 29.60Q106.10 37.35 109.28 41.52Q112.45 45.70 118.65 45.70Q123.65 45.70 126.92 43Q130.20 40.30 131.60 34.95L133.80 34.95L133.80 48.50L131.45 48.50L130.75 44.55Q125.25 49 117.40 49Q112.85 49 109.15 47.65Q105.45 46.30 102.85 43.83Q100.25 41.35 98.83 37.80Q97.40 34.25 97.40 29.90Q97.40 25.35 98.90 21.60Q100.40 17.85 103.13 15.15Q105.85 12.45 109.63 10.98Q113.40 9.50 118 9.50Q121.05 9.50 123.70 10.35Q126.35 11.20 129.45 13.10L130.40 10ZM170.95 19.65Q170.95 23.80 168.55 26.60Q166.15 29.40 160.90 30.35L172.50 43.65Q173.70 45.05 175.35 45.77Q177 46.50 178.70 46.50L178.70 48.50L166.85 48.50L154.45 33.30Q153.20 31.80 152.27 31.27Q151.35 30.75 150.55 30.75L150.55 40.55Q150.55 42.40 150.80 43.58Q151.05 44.75 151.80 45.40Q152.55 46.05 153.97 46.27Q155.40 46.50 157.80 46.50L157.80 48.50L137.95 48.50L137.95 46.50Q139.60 46.50 140.63 46.27Q141.65 46.05 142.22 45.42Q142.80 44.80 143 43.67Q143.20 42.55 143.20 40.80L143.20 17.70Q143.20 15.95 143.05 14.88Q142.90 13.80 142.40 13.17Q141.90 12.55 140.97 12.32Q140.05 12.10 138.50 12L138.50 10L155.80 10Q163.05 10 167 12.55Q170.95 15.10 170.95 19.65M150.55 27.75L153.80 27.75Q158.50 27.75 160.82 25.92Q163.15 24.10 163.15 19.90Q163.15 16.70 161.20 14.75Q159.25 12.80 155.80 12.80L151.45 12.80Q150.55 12.80 150.55 13.65L150.55 27.75ZM199.60 9.50Q204.10 9.50 208 11.05Q211.90 12.60 214.78 15.30Q217.65 18 219.30 21.65Q220.95 25.30 220.95 29.55Q220.95 33.60 219.28 37.15Q217.60 40.70 214.72 43.33Q211.85 45.95 207.95 47.48Q204.05 49 199.60 49Q195.15 49 191.25 47.48Q187.35 45.95 184.45 43.33Q181.55 40.70 179.90 37.15Q178.25 33.60 178.25 29.55Q178.25 25.30 179.90 21.65Q181.55 18 184.43 15.30Q187.30 12.60 191.20 11.05Q195.10 9.50 199.60 9.50M199.60 45.75Q202.50 45.75 204.85 44.63Q207.20 43.50 208.85 41.42Q210.50 39.35 211.38 36.38Q212.25 33.40 212.25 29.70Q212.25 25.80 211.38 22.67Q210.50 19.55 208.85 17.32Q207.20 15.10 204.85 13.92Q202.50 12.75 199.60 12.75Q196.65 12.75 194.32 13.92Q192 15.10 190.35 17.32Q188.70 19.55 187.82 22.67Q186.95 25.80 186.95 29.70Q186.95 33.40 187.82 36.38Q188.70 39.35 190.35 41.42Q192 43.50 194.32 44.63Q196.65 45.75 199.60 45.75ZM245.05 49Q240.55 49 236.93 47.67Q233.30 46.35 230.78 43.88Q228.25 41.40 226.88 37.88Q225.50 34.35 225.50 29.95Q225.50 25.40 226.97 21.63Q228.45 17.85 231.10 15.15Q233.75 12.45 237.45 10.98Q241.15 9.50 245.65 9.50Q248.75 9.50 251.55 10.35Q254.35 11.20 257.60 13.10L258.55 10L260.35 10L260.35 22.65L257.85 22.65Q256.85 17.95 253.83 15.35Q250.80 12.75 246.25 12.75Q240.50 12.75 237.33 17.17Q234.15 21.60 234.15 29.55Q234.15 37.35 237.25 41.50Q240.35 45.65 246.25 45.65Q250.50 45.65 252.88 43.48Q255.25 41.30 255.25 37.45Q255.25 35.15 254.05 34.08Q252.85 33 250 32.75L250 30.75L266.20 30.75L266.20 32.75Q263.75 32.75 262.80 33.83Q261.85 34.90 261.85 37.70L261.85 44.35Q260.75 44.35 260 44.42Q259.25 44.50 258.52 44.73Q257.80 44.95 256.90 45.45Q256 45.95 254.65 46.75Q250.80 49 245.05 49ZM303.15 48.50L268.70 48.50L268.70 46.50Q270.35 46.45 271.40 46.20Q272.45 45.95 273 45.35Q273.55 44.75 273.75 43.65Q273.95 42.55 273.95 40.80L273.95 17.70Q273.95 15.95 273.77 14.88Q273.60 13.80 273.10 13.17Q272.60 12.55 271.68 12.32Q270.75 12.10 269.25 12L269.25 10L286.50 10L286.50 12Q284.80 12.05 283.77 12.30Q282.75 12.55 282.20 13.20Q281.65 13.85 281.47 15Q281.30 16.15 281.30 18.05L281.30 39Q281.30 41.10 281.72 42.42Q282.15 43.75 283.20 44.48Q284.25 45.20 286 45.48Q287.75 45.75 290.35 45.75Q293.25 45.75 295.20 45.40Q297.15 45.05 298.47 44.08Q299.80 43.10 300.60 41.45Q301.40 39.80 301.95 37.15L303.95 37.15L303.15 48.50ZM329.75 36.85L315.60 36.85Q313.25 42.15 313.25 44.20Q313.25 45.70 314.38 46.10Q315.50 46.50 317.75 46.50L317.75 48.50L304.05 48.50L304.05 46.50Q305.25 46.35 306.13 46.10Q307 45.85 307.68 45.40Q308.35 44.95 308.85 44.23Q309.35 43.50 309.80 42.45L322.95 9.50L326.65 9.50L338.60 38.70Q339.65 41.25 340.38 42.70Q341.10 44.15 341.93 44.92Q342.75 45.70 343.82 46Q344.90 46.30 346.60 46.45L346.60 48.50L327.70 48.50L327.70 46.45Q330.10 46.35 331.15 45.95Q332.20 45.55 332.20 44.35Q332.20 43.65 331.85 42.55Q331.50 41.45 330.90 39.85L329.75 36.85M316.75 33.85L328.65 33.85L322.90 18.70L322.70 18.70L316.75 33.85ZM378.65 49L356.50 17.45L356.30 17.45L356.30 38.95Q356.30 41.45 356.47 42.90Q356.65 44.35 357.22 45.15Q357.80 45.95 358.82 46.20Q359.85 46.45 361.50 46.50L361.50 48.50L346.65 48.50L346.65 46.50Q348.50 46.45 349.63 46.17Q350.75 45.90 351.38 45.15Q352 44.40 352.20 43.02Q352.40 41.65 352.40 39.30L352.40 19.20Q352.40 17.10 352.20 15.73Q352 14.35 351.45 13.55Q350.90 12.75 349.88 12.42Q348.85 12.10 347.15 12L347.15 10L361.10 10L381.25 38.90L381.45 38.90L381.45 19.55Q381.45 17.10 381.27 15.63Q381.10 14.15 380.52 13.35Q379.95 12.55 378.92 12.30Q377.90 12.05 376.25 12L376.25 10L391.10 10L391.10 12Q389.25 12.05 388.13 12.32Q387 12.60 386.38 13.35Q385.75 14.10 385.55 15.50Q385.35 16.90 385.35 19.20L385.35 49L378.65 49ZM426.90 10L429.35 10L428.35 22.65L426.35 22.65Q425.30 18.05 422.27 15.40Q419.25 12.75 414.95 12.75Q412.00 12.75 409.70 13.92Q407.40 15.10 405.82 17.27Q404.25 19.45 403.42 22.57Q402.60 25.70 402.60 29.60Q402.60 37.35 405.77 41.52Q408.95 45.70 415.15 45.70Q420.15 45.70 423.42 43Q426.70 40.30 428.10 34.95L430.30 34.95L430.30 48.50L427.95 48.50L427.25 44.55Q421.75 49 413.90 49Q409.35 49 405.65 47.65Q401.95 46.30 399.35 43.83Q396.75 41.35 395.32 37.80Q393.90 34.25 393.90 29.90Q393.90 25.35 395.40 21.60Q396.90 17.85 399.62 15.15Q402.35 12.45 406.12 10.98Q409.90 9.50 414.50 9.50Q417.55 9.50 420.20 10.35Q422.85 11.20 425.95 13.10L426.90 10ZM447.05 27.20Q450.25 27.20 452.20 27Q454.15 26.80 455.22 26.17Q456.30 25.55 456.75 24.35Q457.20 23.15 457.45 21.10L459.30 21.10L459.30 35.75L457.45 35.75Q457.15 33.75 456.65 32.55Q456.15 31.35 455.05 30.72Q453.95 30.10 452.07 29.93Q450.20 29.75 447.05 29.75L447.05 40.05Q447.05 41.65 447.47 42.75Q447.90 43.85 448.90 44.52Q449.90 45.20 451.55 45.48Q453.20 45.75 455.60 45.75Q458.45 45.75 460.42 45.35Q462.40 44.95 463.70 43.95Q465.00 42.95 465.80 41.27Q466.60 39.60 467.15 37.05L469.15 37.05L468.35 48.50L434.45 48.50L434.45 46.50Q436.10 46.45 437.15 46.20Q438.20 45.95 438.75 45.35Q439.30 44.75 439.50 43.65Q439.70 42.55 439.70 40.80L439.70 17.70Q439.70 15.95 439.52 14.88Q439.35 13.80 438.85 13.17Q438.35 12.55 437.42 12.32Q436.50 12.10 435.00 12L435.00 10L466.60 10L466.95 19.80L464.80 19.80Q464.50 17.70 463.85 16.32Q463.20 14.95 462.05 14.13Q460.90 13.30 459.07 12.98Q457.25 12.65 454.60 12.65L448.95 12.65Q447.65 12.65 447.35 12.98Q447.05 13.30 447.05 14.50L447.05 27.20Z"/></g></g></svg>