<?xml version="1.0" standalone="no"?>
<!DOCTYPE svg PUBLIC "-//W3C//DTD SVG 20010904//EN"
 "http://www.w3.org/TR/2001/REC-SVG-20010904/DTD/svg10.dtd">
<svg version="1.0" xmlns="http://www.w3.org/2000/svg"
 width="600.000000pt" height="320.000000pt" viewBox="0 0 600.000000 320.000000"
 preserveAspectRatio="xMidYMid meet">

<g transform="translate(0.000000,320.000000) scale(0.100000,-0.100000)"
fill="#000000" stroke="none">
<path d="M1766 1971 c-14 -5 -16 -10 -8 -15 17 -10 16 -218 0 -234 -9 -9 -2
-12 32 -12 34 0 41 3 32 12 -7 7 -12 39 -12 75 0 59 2 63 25 69 40 10 55 -11
55 -75 0 -31 -5 -62 -12 -69 -9 -9 -2 -12 33 -12 26 0 39 4 31 8 -7 5 -14 37
-17 80 -2 40 -7 77 -10 82 -8 13 -61 13 -86 0 -18 -10 -19 -7 -19 45 0 57 -5
62 -44 46z"/>
<path d="M1520 1928 c1 -30 2 -31 12 -13 14 25 28 35 51 35 15 0 17 -12 17
-110 0 -93 -3 -110 -17 -119 -14 -8 -5 -10 37 -10 42 0 51 2 38 10 -15 9 -18
26 -18 119 0 104 1 110 20 110 12 0 32 -12 45 -26 l25 -27 0 32 0 31 -105 0
-105 0 0 -32z"/>
<path d="M2000 1870 c-82 -82 21 -213 107 -134 22 20 23 23 6 15 -49 -24 -96
-4 -105 44 -3 18 3 20 55 23 53 3 57 5 57 27 0 45 -83 62 -120 25z m78 -2 c24
-24 13 -38 -28 -38 -26 0 -40 5 -40 13 0 18 21 37 40 37 9 0 21 -5 28 -12z"/>
<path d="M4440 1765 c-19 -23 -4 -64 27 -71 14 -4 33 -2 42 3 20 13 26 50 11
69 -16 18 -64 18 -80 -1z"/>
<path d="M898 1730 c33 -21 34 -21 28 -78 -3 -31 -11 -115 -17 -187 -11 -131
-25 -175 -54 -175 -8 0 -15 -4 -15 -10 0 -6 32 -10 75 -10 71 0 97 12 56 25
-42 13 -44 25 -31 200 7 91 15 163 18 160 3 -3 40 -90 81 -193 47 -115 82
-187 90 -187 9 0 42 73 90 193 56 144 77 188 83 173 4 -11 8 -91 10 -178 3
-156 3 -158 -19 -168 -43 -18 -23 -25 72 -25 57 0 95 4 95 10 0 6 -6 10 -14
10 -7 0 -19 7 -26 15 -14 16 -46 362 -37 398 4 12 19 28 34 34 24 10 18 11
-46 10 l-74 -2 -67 -170 c-37 -93 -71 -169 -76 -168 -4 1 -39 78 -77 172 l-70
171 -71 0 -71 0 33 -20z"/>
<path d="M1595 1626 c-72 -20 -104 -66 -69 -100 30 -30 64 -12 64 34 0 33 17
50 50 50 38 0 60 -29 60 -77 l0 -40 -72 -24 c-90 -28 -128 -62 -128 -114 0
-79 95 -113 172 -61 l35 23 9 -21 c12 -29 78 -35 106 -9 20 18 20 18 -8 23
l-29 5 -5 133 c-5 131 -5 134 -33 158 -15 13 -36 24 -45 24 -9 0 -26 2 -37 5
-11 2 -42 -2 -70 -9z m84 -298 c-24 -20 -51 -23 -80 -8 -14 8 -19 21 -19 50 0
43 22 64 84 85 l31 10 3 -60 c3 -52 0 -62 -19 -77z"/>
<path d="M2000 1629 c-52 -16 -86 -44 -109 -92 -39 -80 -24 -174 38 -231 25
-24 42 -31 89 -34 68 -5 109 12 142 58 28 40 16 59 -17 26 -52 -52 -145 -39
-179 26 -22 43 -23 133 -1 175 39 74 127 71 127 -5 0 -44 62 -53 75 -11 7 22
-15 63 -43 78 -30 16 -85 20 -122 10z"/>
<path d="M2414 1630 c-12 -4 -33 -23 -48 -42 l-26 -33 0 38 c0 20 -5 37 -11
37 -11 0 -102 -21 -107 -25 -2 -2 8 -14 22 -28 24 -24 26 -33 26 -120 0 -119
-8 -158 -32 -164 -45 -12 -11 -23 72 -23 53 0 90 4 90 10 0 6 -6 10 -14 10
-35 0 -46 29 -46 120 0 49 4 100 10 114 13 35 45 50 80 38 19 -7 31 -7 39 1
17 17 13 55 -8 67 -22 11 -19 11 -47 0z"/>
<path d="M2637 1628 c-112 -30 -162 -184 -93 -289 31 -46 80 -69 146 -69 59 0
97 17 134 60 82 98 38 266 -79 299 -46 13 -56 13 -108 -1z m92 -28 c28 -14 51
-83 51 -150 0 -67 -23 -136 -51 -150 -114 -61 -189 180 -91 293 17 19 63 23
91 7z"/>
<path d="M3115 1628 c-16 -6 -39 -19 -51 -29 -27 -25 -34 -24 -34 7 0 25 -2
26 -36 19 -20 -3 -48 -11 -63 -16 -25 -10 -25 -11 -6 -21 33 -18 35 -28 35
-150 0 -105 -2 -120 -20 -138 -11 -11 -20 -22 -20 -25 0 -3 36 -5 80 -5 75 0
103 11 61 25 -25 8 -31 33 -31 146 0 88 2 97 24 118 34 32 92 33 117 2 16 -20
19 -41 19 -137 0 -103 -2 -115 -20 -126 -35 -22 -22 -28 60 -28 75 0 103 11
61 25 -26 8 -31 33 -31 158 0 124 -12 159 -61 176 -37 13 -44 13 -84 -1z"/>
<path d="M3475 1628 c-51 -19 -87 -49 -106 -92 -37 -82 -14 -190 52 -237 50
-35 151 -39 198 -7 58 39 75 71 79 148 4 58 1 75 -19 110 -13 22 -37 49 -54
60 -38 23 -111 32 -150 18z m78 -19 c37 -17 59 -65 65 -139 7 -109 -28 -180
-90 -180 -67 0 -111 107 -89 216 13 68 36 97 88 113 1 1 13 -4 26 -10z"/>
<path d="M3956 1630 c-16 -5 -42 -21 -57 -36 l-29 -28 0 33 c0 32 -1 33 -32
28 -18 -3 -46 -10 -61 -16 l-29 -11 24 -19 c22 -18 23 -25 23 -146 0 -109 -2
-128 -17 -139 -30 -22 -21 -26 57 -26 77 0 90 6 55 28 -18 11 -20 23 -20 132
0 113 1 120 23 134 45 29 74 30 101 2 25 -24 26 -30 26 -140 0 -105 -2 -117
-20 -128 -11 -7 -20 -16 -20 -20 0 -12 148 -10 155 2 3 6 -1 10 -9 10 -27 0
-36 36 -36 143 0 97 2 105 24 126 30 28 89 32 113 9 13 -13 16 -40 17 -133 1
-110 0 -118 -21 -135 -13 -10 -23 -21 -23 -24 0 -3 36 -6 80 -6 82 0 95 6 61
27 -17 11 -20 27 -23 147 -3 125 -5 136 -26 159 -43 45 -125 42 -172 -8 -27
-28 -40 -32 -40 -10 0 33 -75 60 -124 45z"/>
<path d="M4755 1631 c-88 -22 -145 -97 -145 -190 0 -50 38 -121 80 -149 30
-20 45 -23 99 -20 58 4 66 7 97 41 33 36 44 67 24 67 -5 0 -10 -5 -10 -10 0
-16 -62 -50 -90 -50 -68 0 -120 64 -120 146 0 88 34 144 88 144 36 0 52 -16
52 -52 0 -21 7 -32 25 -40 41 -18 68 18 49 67 -13 33 -96 59 -149 46z"/>
<path d="M5053 1629 c-42 -12 -73 -53 -73 -96 0 -53 16 -73 88 -105 37 -17 75
-37 85 -46 40 -35 5 -92 -58 -92 -36 0 -67 24 -89 68 -22 43 -32 35 -28 -21 4
-41 7 -47 34 -56 45 -16 134 -13 168 4 37 19 50 43 50 93 0 49 -33 85 -99 107
-68 22 -91 41 -91 74 0 35 19 52 60 53 32 1 75 -31 86 -64 10 -32 24 -19 24
22 0 34 -4 42 -26 50 -41 16 -97 20 -131 9z"/>
<path d="M4465 1623 c-11 -3 -30 -9 -42 -14 l-23 -8 25 -25 c24 -24 25 -31 25
-136 0 -113 -9 -150 -36 -150 -8 0 -12 -4 -9 -10 3 -5 42 -10 86 -10 46 0 79
4 79 10 0 6 -7 10 -15 10 -28 0 -35 39 -35 189 0 164 2 158 -55 144z"/>
</g>
</svg>
